<?xml version="1.0" encoding="UTF-8"?><svg xmlns="http://www.w3.org/2000/svg" viewBox="0 0 43.81 63.23"><defs><style>.d{stroke-linecap:round;}.d,.e,.f{fill:none;stroke:#89412b;stroke-miterlimit:10;}.d,.f{stroke-width:4px;}.e{stroke-width:2px;}</style></defs><g id="a"/><g id="b"><g id="c"><g><path class="e" d="M28.72,17.94c0,4.66-2.96,8.62-7.09,10.13v-9.97c0-1.85-1.45-3.43-3.3-3.47-1.89-.03-3.43,1.49-3.43,3.36l-.02,10.28c-4.47-1.32-7.72-5.44-7.72-10.33,0-5.95,4.83-10.78,10.78-10.78s10.78,4.83,10.78,10.78Z"/><g><g><path class="f" d="M28.29,31.34c-.3-1.55-1.66-2.73-3.3-2.73-1.86,0-3.36,1.51-3.36,3.36v2.49"/><line class="d" x1="21.63" y1="37.93" x2="21.63" y2="34.47"/><line class="d" x1="28.35" y1="31.98" x2="28.35" y2="37.93"/><line class="d" x1="35.08" y1="34.4" x2="35.08" y2="37.93"/></g><path class="f" d="M21.63,34.47V18.1c0-1.85-1.45-3.43-3.3-3.47-1.89-.03-3.43,1.49-3.43,3.36l-.02,10.28-.02,6.32-.02,5.44c0,.37-.51,.49-.67,.15l-2.58-5.22c-.65-1.76-2.61-2.67-4.39-2.02-1.72,.64-2.59,2.58-2.05,4.33l3.61,11.59c.32,1.02,.73,2,1.23,2.93l.16,.29c3.01,5.62,8.87,9.12,15.24,9.12,4.53,0,8.62-1.83,11.59-4.8,2.97-2.97,4.8-7.07,4.8-11.59v-10.32c0-1.86-1.45-3.44-3.3-3.47-1.89-.04-3.43,1.48-3.43,3.36v-2.31c0-1.85-1.45-3.43-3.3-3.47-.25,0-.51,.02-.75,.08-1.29,.26-2.3,1.25-2.59,2.53-.06,.24-.09,.49-.09,.75,0-.22-.02-.43-.06-.64"/></g><path class="e" d="M28.29,31.34c.05-.04,.11-.08,.15-.12,.28-1.28,1.3-2.27,2.59-2.53,2.4-2.93,3.84-6.67,3.84-10.76C34.88,8.58,27.29,1,17.94,1S1,8.58,1,17.94c0,8.31,5.98,15.21,13.87,16.65l.02-6.32,.02-10.28c0-1.88,1.54-3.4,3.43-3.36,1.85,.04,3.3,1.62,3.3,3.47v16.37"/></g></g></g></svg>